<svg width="560" height="400" viewBox="200 340 560 400" fill="none" xmlns="http://www.w3.org/2000/svg">
<path d="M430.5 380H224.5L222 429H360.5C395.5 395.5 430.5 380 430.5 380Z" fill="white" stroke="#1D3655"/>
<path d="M453 370.82C388.136 412.306 317.226 471.882 210.5 620.5L208 648.5L436 645L437.5 599H324C308.5 599 286.905 604.5 278.5 609C270.095 613.5 271.5 612.5 271.5 612.5C374 498 447 379.5 447 379.5L453 370.82Z" fill="#0F9CEE"/>
<path d="M567.5 581L629 434H685L552.5 728.5C552.5 728.5 516 728.5 497 733.5L542.5 638L447 434H507L537.25 507.5L567.5 581Z" fill="white"/>
<path d="M707 354.5C728.533 352.823 739.944 350.83 759.5 346V641H707V354.5Z" fill="white"/>
<path d="M453.5 370.5C453.333 370.606 453.167 370.713 453 370.82M453 370.82C388.136 412.306 317.226 471.882 210.5 620.5L208 648.5L436 645L437.5 599M453 370.82L447 379.5C447 379.5 374 498 271.5 612.5C271.5 612.5 270.095 613.5 278.5 609C286.905 604.5 308.5 599 324 599M324 599C324 599 393.175 599 437.5 599M324 599H437.5M445.5 434H447M447 434H507L537.25 507.5L567.5 581L629 434H685L552.5 728.5C552.5 728.5 516 728.5 497 733.5L542.5 638L447 434ZM707 354.5C728.533 352.823 739.944 350.83 759.5 346V641H707V354.5Z" stroke="#0F9CEE"/>
</svg>
