<svg width="1440" height="1080" viewBox="200 340 1030 400" fill="none" xmlns="http://www.w3.org/2000/svg">

<path d="M430.5 380H224.5L222 429H360.5C395.5 395.5 430.5 380 430.5 380Z" fill="white" stroke="#1D3655"/>
<path d="M453 370.82C388.136 412.306 317.226 471.882 210.5 620.5L208 648.5L436 645L437.5 599H324C308.5 599 286.905 604.5 278.5 609C270.095 613.5 271.5 612.5 271.5 612.5C374 498 447 379.5 447 379.5L453 370.82Z" fill="#0F9CEE"/>
<path d="M567.5 581L629 434H685L552.5 728.5C552.5 728.5 516 728.5 497 733.5L542.5 638L447 434H507L537.25 507.5L567.5 581Z" fill="white"/>
<path d="M707 354.5C728.533 352.823 739.944 350.83 759.5 346V641H707V354.5Z" fill="white"/>
<path d="M453.5 370.5C453.333 370.606 453.167 370.713 453 370.82M453 370.82C388.136 412.306 317.226 471.882 210.5 620.5L208 648.5L436 645L437.5 599M453 370.82L447 379.5C447 379.5 374 498 271.5 612.5C271.5 612.5 270.095 613.5 278.5 609C286.905 604.5 308.5 599 324 599M324 599C324 599 393.175 599 437.5 599M324 599H437.5M445.5 434H447M447 434H507L537.25 507.5L567.5 581L629 434H685L552.5 728.5C552.5 728.5 516 728.5 497 733.5L542.5 638L447 434ZM707 354.5C728.533 352.823 739.944 350.83 759.5 346V641H707V354.5Z" stroke="#0F9CEE"/>
<path d="M1109.81 499.48L1062.81 433.48H999.306L1078.31 534.48L995.306 638.98H1054.31L1108.31 568.48L1159.31 638.98H1221.81L1138.31 532.48L1217.81 432.48H1158.31L1109.81 499.48Z" fill="#FFFBFB"/>

<path fill-rule="evenodd" clip-rule="evenodd" d="M965.306 455.98C939.112 428.35 898.806 427.98 882.806 429.48C866.806 430.98 838.806 437.77 817.306 457.98C795.806 478.19 788.306 506.48 788.306 506.48C788.306 506.48 783.806 522.48 785.306 551.48C786.806 580.48 804.806 616.98 836.806 631.48C868.806 645.98 893.806 648.48 924.306 642.98C954.806 637.48 985.306 613.48 985.306 613.48L956.306 584.98C956.306 584.98 932.806 604.98 897.806 604.48C862.806 603.98 839 586.611 835 552.111H994C994 552.111 995.306 527 994 517.611C993.903 516.91 993.806 516.126 993.699 515.261L993.699 515.258L993.699 515.256C992.376 504.527 989.543 481.546 965.306 455.98ZM945.806 517.48H834.306C834.306 517.48 839.306 467.98 891.806 467.98C944.306 467.98 945.806 517.48 945.806 517.48Z" fill="#FFFBFB"/>

<path d="M598.095 722V688.4H613.839C617.871 688.4 620.943 689.2 623.055 690.8C625.167 692.368 626.223 694.48 626.223 697.136C626.223 698.928 625.807 700.464 624.975 701.744C624.143 702.992 623.023 703.968 621.615 704.672C620.239 705.344 618.735 705.68 617.103 705.68L617.967 703.952C619.855 703.952 621.551 704.304 623.055 705.008C624.559 705.68 625.743 706.672 626.607 707.984C627.503 709.296 627.951 710.928 627.951 712.88C627.951 715.76 626.847 718 624.639 719.6C622.431 721.2 619.151 722 614.799 722H598.095ZM604.335 717.104H614.415C616.751 717.104 618.543 716.72 619.791 715.952C621.039 715.184 621.663 713.952 621.663 712.256C621.663 710.592 621.039 709.376 619.791 708.608C618.543 707.808 616.751 707.408 614.415 707.408H603.855V702.56H613.167C615.343 702.56 617.007 702.176 618.159 701.408C619.343 700.64 619.935 699.488 619.935 697.952C619.935 696.384 619.343 695.216 618.159 694.448C617.007 693.68 615.343 693.296 613.167 693.296H604.335V717.104ZM652.563 722.336C650.387 722.336 648.467 721.936 646.803 721.136C645.139 720.304 643.843 719.056 642.915 717.392C641.987 715.696 641.523 713.568 641.523 711.008V696.368H647.523V710.192C647.523 712.496 648.035 714.224 649.059 715.376C650.115 716.496 651.603 717.056 653.523 717.056C654.931 717.056 656.147 716.768 657.171 716.192C658.227 715.616 659.043 714.752 659.619 713.6C660.227 712.448 660.531 711.024 660.531 709.328V696.368H666.531V722H660.819V715.088L661.827 717.2C660.963 718.864 659.699 720.144 658.035 721.04C656.371 721.904 654.547 722.336 652.563 722.336ZM682.067 722V696.368H688.067V722H682.067ZM685.091 692.144C683.971 692.144 683.043 691.792 682.307 691.088C681.603 690.384 681.251 689.536 681.251 688.544C681.251 687.52 681.603 686.672 682.307 686C683.043 685.296 683.971 684.944 685.091 684.944C686.211 684.944 687.123 685.28 687.827 685.952C688.563 686.592 688.931 687.408 688.931 688.4C688.931 689.456 688.579 690.352 687.875 691.088C687.171 691.792 686.243 692.144 685.091 692.144ZM703.622 722V686.384H709.622V722H703.622ZM736.09 722.336C733.274 722.336 731.098 721.616 729.562 720.176C728.026 718.704 727.258 716.544 727.258 713.696V690.704H733.258V713.552C733.258 714.768 733.562 715.712 734.17 716.384C734.81 717.056 735.69 717.392 736.81 717.392C738.154 717.392 739.274 717.04 740.17 716.336L741.85 720.608C741.146 721.184 740.282 721.616 739.258 721.904C738.234 722.192 737.178 722.336 736.09 722.336ZM723.034 701.36V696.56H740.122V701.36H723.034ZM785.06 722.336C782.244 722.336 780.068 721.616 778.532 720.176C776.996 718.704 776.228 716.544 776.228 713.696V690.704H782.228V713.552C782.228 714.768 782.532 715.712 783.14 716.384C783.78 717.056 784.66 717.392 785.78 717.392C787.124 717.392 788.244 717.04 789.14 716.336L790.82 720.608C790.116 721.184 789.252 721.616 788.228 721.904C787.204 722.192 786.148 722.336 785.06 722.336ZM772.004 701.36V696.56H789.092V701.36H772.004ZM814.112 722.336C811.488 722.336 809.152 721.776 807.104 720.656C805.056 719.504 803.44 717.936 802.256 715.952C801.072 713.968 800.48 711.712 800.48 709.184C800.48 706.624 801.072 704.368 802.256 702.416C803.44 700.432 805.056 698.88 807.104 697.76C809.152 696.64 811.488 696.08 814.112 696.08C816.768 696.08 819.12 696.64 821.168 697.76C823.248 698.88 824.864 700.416 826.016 702.368C827.2 704.32 827.792 706.592 827.792 709.184C827.792 711.712 827.2 713.968 826.016 715.952C824.864 717.936 823.248 719.504 821.168 720.656C819.12 721.776 816.768 722.336 814.112 722.336ZM814.112 717.2C815.584 717.2 816.896 716.88 818.048 716.24C819.2 715.6 820.096 714.672 820.736 713.456C821.408 712.24 821.744 710.816 821.744 709.184C821.744 707.52 821.408 706.096 820.736 704.912C820.096 703.696 819.2 702.768 818.048 702.128C816.896 701.488 815.6 701.168 814.16 701.168C812.688 701.168 811.376 701.488 810.224 702.128C809.104 702.768 808.208 703.696 807.536 704.912C806.864 706.096 806.528 707.52 806.528 709.184C806.528 710.816 806.864 712.24 807.536 713.456C808.208 714.672 809.104 715.6 810.224 716.24C811.376 716.88 812.672 717.2 814.112 717.2ZM878.475 722.48C875.851 722.48 873.435 722.048 871.227 721.184C869.019 720.32 867.099 719.12 865.467 717.584C863.835 716.016 862.571 714.192 861.675 712.112C860.779 710 860.331 707.696 860.331 705.2C860.331 702.704 860.779 700.416 861.675 698.336C862.571 696.224 863.835 694.4 865.467 692.864C867.099 691.296 869.019 690.08 871.227 689.216C873.435 688.352 875.835 687.92 878.427 687.92C881.051 687.92 883.451 688.352 885.627 689.216C887.835 690.08 889.755 691.296 891.387 692.864C893.019 694.4 894.283 696.224 895.179 698.336C896.075 700.416 896.523 702.704 896.523 705.2C896.523 707.696 896.075 710 895.179 712.112C894.283 714.224 893.019 716.048 891.387 717.584C889.755 719.12 887.835 720.32 885.627 721.184C883.451 722.048 881.067 722.48 878.475 722.48ZM878.427 717.008C880.123 717.008 881.691 716.72 883.131 716.144C884.571 715.568 885.819 714.752 886.875 713.696C887.931 712.608 888.747 711.36 889.323 709.952C889.931 708.512 890.235 706.928 890.235 705.2C890.235 703.472 889.931 701.904 889.323 700.496C888.747 699.056 887.931 697.808 886.875 696.752C885.819 695.664 884.571 694.832 883.131 694.256C881.691 693.68 880.123 693.392 878.427 693.392C876.731 693.392 875.163 693.68 873.723 694.256C872.315 694.832 871.067 695.664 869.979 696.752C868.923 697.808 868.091 699.056 867.483 700.496C866.907 701.904 866.619 703.472 866.619 705.2C866.619 706.896 866.907 708.464 867.483 709.904C868.091 711.344 868.923 712.608 869.979 713.696C871.035 714.752 872.283 715.568 873.723 716.144C875.163 716.72 876.731 717.008 878.427 717.008ZM921.089 722.336C918.913 722.336 916.993 721.936 915.329 721.136C913.665 720.304 912.369 719.056 911.441 717.392C910.513 715.696 910.049 713.568 910.049 711.008V696.368H916.049V710.192C916.049 712.496 916.561 714.224 917.585 715.376C918.641 716.496 920.129 717.056 922.049 717.056C923.457 717.056 924.673 716.768 925.697 716.192C926.753 715.616 927.569 714.752 928.145 713.6C928.753 712.448 929.057 711.024 929.057 709.328V696.368H935.057V722H929.345V715.088L930.353 717.2C929.489 718.864 928.225 720.144 926.561 721.04C924.897 721.904 923.073 722.336 921.089 722.336ZM960.241 722.336C957.425 722.336 955.249 721.616 953.713 720.176C952.177 718.704 951.409 716.544 951.409 713.696V690.704H957.409V713.552C957.409 714.768 957.713 715.712 958.321 716.384C958.961 717.056 959.841 717.392 960.961 717.392C962.305 717.392 963.425 717.04 964.321 716.336L966.001 720.608C965.297 721.184 964.433 721.616 963.409 721.904C962.385 722.192 961.329 722.336 960.241 722.336ZM947.185 701.36V696.56H964.273V701.36H947.185ZM992.825 722.336C990.745 722.336 988.841 721.856 987.113 720.896C985.417 719.936 984.057 718.496 983.033 716.576C982.041 714.624 981.545 712.16 981.545 709.184C981.545 706.176 982.025 703.712 982.985 701.792C983.977 699.872 985.321 698.448 987.017 697.52C988.713 696.56 990.649 696.08 992.825 696.08C995.353 696.08 997.577 696.624 999.497 697.712C1001.45 698.8 1002.98 700.32 1004.1 702.272C1005.26 704.224 1005.83 706.528 1005.83 709.184C1005.83 711.84 1005.26 714.16 1004.1 716.144C1002.98 718.096 1001.45 719.616 999.497 720.704C997.577 721.792 995.353 722.336 992.825 722.336ZM978.617 731.312V696.368H984.329V702.416L984.137 709.232L984.617 716.048V731.312H978.617ZM992.153 717.2C993.593 717.2 994.873 716.88 995.993 716.24C997.145 715.6 998.057 714.672 998.729 713.456C999.401 712.24 999.737 710.816 999.737 709.184C999.737 707.52 999.401 706.096 998.729 704.912C998.057 703.696 997.145 702.768 995.993 702.128C994.873 701.488 993.593 701.168 992.153 701.168C990.713 701.168 989.417 701.488 988.265 702.128C987.113 702.768 986.201 703.696 985.529 704.912C984.857 706.096 984.521 707.52 984.521 709.184C984.521 710.816 984.857 712.24 985.529 713.456C986.201 714.672 987.113 715.6 988.265 716.24C989.417 716.88 990.713 717.2 992.153 717.2ZM1031.25 722.336C1028.4 722.336 1025.91 721.776 1023.76 720.656C1021.65 719.504 1020 717.936 1018.82 715.952C1017.67 713.968 1017.09 711.712 1017.09 709.184C1017.09 706.624 1017.65 704.368 1018.77 702.416C1019.92 700.432 1021.49 698.88 1023.47 697.76C1025.49 696.64 1027.78 696.08 1030.34 696.08C1032.83 696.08 1035.06 696.624 1037.01 697.712C1038.96 698.8 1040.5 700.336 1041.62 702.32C1042.74 704.304 1043.3 706.64 1043.3 709.328C1043.3 709.584 1043.28 709.872 1043.25 710.192C1043.25 710.512 1043.23 710.816 1043.2 711.104H1021.84V707.12H1040.03L1037.68 708.368C1037.71 706.896 1037.41 705.6 1036.77 704.48C1036.13 703.36 1035.25 702.48 1034.13 701.84C1033.04 701.2 1031.78 700.88 1030.34 700.88C1028.87 700.88 1027.57 701.2 1026.45 701.84C1025.36 702.48 1024.5 703.376 1023.86 704.528C1023.25 705.648 1022.95 706.976 1022.95 708.512V709.472C1022.95 711.008 1023.3 712.368 1024 713.552C1024.71 714.736 1025.7 715.648 1026.98 716.288C1028.26 716.928 1029.73 717.248 1031.39 717.248C1032.83 717.248 1034.13 717.024 1035.28 716.576C1036.43 716.128 1037.46 715.424 1038.35 714.464L1041.57 718.16C1040.42 719.504 1038.96 720.544 1037.2 721.28C1035.47 721.984 1033.49 722.336 1031.25 722.336ZM1056.74 722V696.368H1062.45V703.424L1061.78 701.36C1062.55 699.632 1063.75 698.32 1065.38 697.424C1067.05 696.528 1069.11 696.08 1071.57 696.08V701.792C1071.32 701.728 1071.08 701.696 1070.85 701.696C1070.63 701.664 1070.41 701.648 1070.18 701.648C1067.91 701.648 1066.1 702.32 1064.76 703.664C1063.41 704.976 1062.74 706.944 1062.74 709.568V722H1056.74ZM1085.39 722V694.928C1085.39 692.24 1086.18 690.096 1087.75 688.496C1089.35 686.864 1091.62 686.048 1094.56 686.048C1095.62 686.048 1096.61 686.16 1097.54 686.384C1098.5 686.608 1099.3 686.96 1099.94 687.44L1098.31 691.952C1097.86 691.6 1097.35 691.344 1096.77 691.184C1096.19 690.992 1095.6 690.896 1094.99 690.896C1093.75 690.896 1092.8 691.248 1092.16 691.952C1091.52 692.624 1091.2 693.648 1091.2 695.024V697.904L1091.39 700.592V722H1085.39ZM1081.17 701.36V696.56H1098.26V701.36H1081.17ZM1121.12 722.336C1118.5 722.336 1116.16 721.776 1114.11 720.656C1112.07 719.504 1110.45 717.936 1109.27 715.952C1108.08 713.968 1107.49 711.712 1107.49 709.184C1107.49 706.624 1108.08 704.368 1109.27 702.416C1110.45 700.432 1112.07 698.88 1114.11 697.76C1116.16 696.64 1118.5 696.08 1121.12 696.08C1123.78 696.08 1126.13 696.64 1128.18 697.76C1130.26 698.88 1131.87 700.416 1133.03 702.368C1134.21 704.32 1134.8 706.592 1134.8 709.184C1134.8 711.712 1134.21 713.968 1133.03 715.952C1131.87 717.936 1130.26 719.504 1128.18 720.656C1126.13 721.776 1123.78 722.336 1121.12 722.336ZM1121.12 717.2C1122.59 717.2 1123.91 716.88 1125.06 716.24C1126.21 715.6 1127.11 714.672 1127.75 713.456C1128.42 712.24 1128.75 710.816 1128.75 709.184C1128.75 707.52 1128.42 706.096 1127.75 704.912C1127.11 703.696 1126.21 702.768 1125.06 702.128C1123.91 701.488 1122.61 701.168 1121.17 701.168C1119.7 701.168 1118.39 701.488 1117.23 702.128C1116.11 702.768 1115.22 703.696 1114.55 704.912C1113.87 706.096 1113.54 707.52 1113.54 709.184C1113.54 710.816 1113.87 712.24 1114.55 713.456C1115.22 714.672 1116.11 715.6 1117.23 716.24C1118.39 716.88 1119.68 717.2 1121.12 717.2ZM1148.22 722V696.368H1153.93V703.424L1153.26 701.36C1154.03 699.632 1155.23 698.32 1156.86 697.424C1158.52 696.528 1160.59 696.08 1163.05 696.08V701.792C1162.8 701.728 1162.56 701.696 1162.33 701.696C1162.11 701.664 1161.88 701.648 1161.66 701.648C1159.39 701.648 1157.58 702.32 1156.24 703.664C1154.89 704.976 1154.22 706.944 1154.22 709.568V722H1148.22ZM1208.17 696.08C1210.22 696.08 1212.03 696.48 1213.6 697.28C1215.2 698.08 1216.45 699.312 1217.34 700.976C1218.24 702.608 1218.69 704.72 1218.69 707.312V722H1212.69V708.08C1212.69 705.808 1212.19 704.112 1211.2 702.992C1210.21 701.872 1208.78 701.312 1206.93 701.312C1205.61 701.312 1204.45 701.6 1203.42 702.176C1202.43 702.752 1201.65 703.6 1201.07 704.72C1200.53 705.84 1200.25 707.264 1200.25 708.992V722H1194.25V708.08C1194.25 705.808 1193.76 704.112 1192.77 702.992C1191.77 701.872 1190.35 701.312 1188.49 701.312C1187.18 701.312 1186.01 701.6 1184.99 702.176C1184 702.752 1183.21 703.6 1182.64 704.72C1182.09 705.84 1181.82 707.264 1181.82 708.992V722H1175.82V696.368H1181.53V703.184L1180.53 701.168C1181.39 699.504 1182.64 698.24 1184.27 697.376C1185.93 696.512 1187.82 696.08 1189.93 696.08C1192.33 696.08 1194.41 696.672 1196.17 697.856C1197.97 699.04 1199.15 700.832 1199.73 703.232L1197.37 702.416C1198.21 700.496 1199.58 698.96 1201.5 697.808C1203.42 696.656 1205.65 696.08 1208.17 696.08Z" fill="#9E9E9E"/>
</svg>
